<?xml version="1.0" encoding="UTF-8" standalone="no"?>
<!DOCTYPE svg PUBLIC "-//W3C//DTD SVG 1.1//EN"
 "http://www.w3.org/Graphics/SVG/1.1/DTD/svg11.dtd">
<!-- Generated by graphviz version 2.47.0 (20210316.0004)
 -->
<!-- Title: py Pages: 1 -->
<svg width="537pt" height="548pt"
 viewBox="0.00 0.00 537.45 548.00" xmlns="http://www.w3.org/2000/svg" xmlns:xlink="http://www.w3.org/1999/xlink">
<g id="graph0" class="graph" transform="scale(1 1) rotate(0) translate(4 544)">
<title>py</title>
<polygon fill="white" stroke="transparent" points="-4,4 -4,-544 533.45,-544 533.45,4 -4,4"/>
<!-- &#45;3.6 -->
<g id="node1" class="node">
<title>&#45;3.6</title>
<polygon fill="none" stroke="black" points="55.45,-468 1.45,-468 1.45,-432 55.45,-432 55.45,-468"/>
<text text-anchor="middle" x="28.45" y="-446.3" font-family="Courier New" font-size="14.00">&#45;3.6</text>
</g>
<!-- $PATH -->
<g id="node10" class="node">
<title>$PATH</title>
<polygon fill="none" stroke="black" points="156.45,-108 98.45,-108 98.45,-72 156.45,-72 156.45,-108"/>
<text text-anchor="middle" x="127.45" y="-86.3" font-family="Courier New" font-size="14.00">$PATH</text>
</g>
<!-- &#45;3.6&#45;&gt;$PATH -->
<g id="edge4" class="edge">
<title>&#45;3.6&#45;&gt;$PATH</title>
<path fill="none" stroke="black" d="M22.99,-431.71C15.1,-405.18 1.45,-352.67 1.45,-307 1.45,-307 1.45,-307 1.45,-233 1.45,-192.55 -4.36,-175.94 20.45,-144 37.37,-122.23 65.59,-108.77 88.8,-100.87"/>
<polygon fill="black" stroke="black" points="89.93,-104.18 98.4,-97.82 87.81,-97.51 89.93,-104.18"/>
</g>
<!-- &#45;3 -->
<g id="node2" class="node">
<title>&#45;3</title>
<polygon fill="none" stroke="black" points="154.45,-468 100.45,-468 100.45,-432 154.45,-432 154.45,-468"/>
<text text-anchor="middle" x="127.45" y="-446.3" font-family="Courier New" font-size="14.00">&#45;3</text>
</g>
<!-- $PY_PYTHON3 -->
<g id="node5" class="node">
<title>$PY_PYTHON3</title>
<polygon fill="none" stroke="black" points="127.45,-180 29.25,-162 127.45,-144 225.65,-162 127.45,-180"/>
<text text-anchor="middle" x="127.45" y="-158.3" font-family="Courier New" font-size="14.00">$PY_PYTHON3</text>
</g>
<!-- &#45;3&#45;&gt;$PY_PYTHON3 -->
<g id="edge5" class="edge">
<title>&#45;3&#45;&gt;$PY_PYTHON3</title>
<path fill="none" stroke="black" d="M127.45,-431.97C127.45,-384.29 127.45,-249.18 127.45,-190.63"/>
<polygon fill="black" stroke="black" points="130.95,-190.31 127.45,-180.31 123.95,-190.31 130.95,-190.31"/>
</g>
<!-- &lt;nothing&gt; -->
<g id="node3" class="node">
<title>&lt;nothing&gt;</title>
<polygon fill="none" stroke="black" points="345.95,-468 222.95,-468 222.95,-432 345.95,-432 345.95,-468"/>
<text text-anchor="middle" x="284.45" y="-446.3" font-family="Times,serif" font-size="14.00">No option specified</text>
</g>
<!-- $VIRTUAL_ENV -->
<g id="node6" class="node">
<title>$VIRTUAL_ENV</title>
<polygon fill="none" stroke="black" points="334.45,-396 227.71,-378 334.45,-360 441.2,-378 334.45,-396"/>
<text text-anchor="middle" x="334.45" y="-374.3" font-family="Courier New" font-size="14.00">$VIRTUAL_ENV</text>
</g>
<!-- &lt;nothing&gt;&#45;&gt;$VIRTUAL_ENV -->
<g id="edge7" class="edge">
<title>&lt;nothing&gt;&#45;&gt;$VIRTUAL_ENV</title>
<path fill="none" stroke="black" d="M296.81,-431.7C303.1,-422.89 310.84,-412.06 317.66,-402.52"/>
<polygon fill="black" stroke="black" points="320.63,-404.37 323.6,-394.2 314.94,-400.31 320.63,-404.37"/>
</g>
<!-- py ... -->
<g id="node4" class="node">
<title>py ...</title>
<polygon fill="none" stroke="black" stroke-width="2" points="160.45,-540 94.45,-540 94.45,-504 160.45,-504 160.45,-540"/>
<text text-anchor="middle" x="127.45" y="-518.3" font-family="Courier New" font-size="14.00">py ...</text>
</g>
<!-- py ...&#45;&gt;&#45;3.6 -->
<g id="edge1" class="edge">
<title>py ...&#45;&gt;&#45;3.6</title>
<path fill="none" stroke="black" d="M103.24,-503.88C90.53,-494.89 74.79,-483.76 61.03,-474.03"/>
<polygon fill="black" stroke="black" points="62.95,-471.11 52.77,-468.19 58.91,-476.82 62.95,-471.11"/>
</g>
<!-- py ...&#45;&gt;&#45;3 -->
<g id="edge2" class="edge">
<title>py ...&#45;&gt;&#45;3</title>
<path fill="none" stroke="black" d="M127.45,-503.7C127.45,-495.98 127.45,-486.71 127.45,-478.11"/>
<polygon fill="black" stroke="black" points="130.95,-478.1 127.45,-468.1 123.95,-478.1 130.95,-478.1"/>
</g>
<!-- py ...&#45;&gt;&lt;nothing&gt; -->
<g id="edge3" class="edge">
<title>py ...&#45;&gt;&lt;nothing&gt;</title>
<path fill="none" stroke="black" d="M160.75,-506.15C182.94,-496.26 212.44,-483.11 237.06,-472.13"/>
<polygon fill="black" stroke="black" points="238.53,-475.31 246.24,-468.04 235.68,-468.92 238.53,-475.31"/>
</g>
<!-- $PY_PYTHON3&#45;&gt;$PATH -->
<g id="edge6" class="edge">
<title>$PY_PYTHON3&#45;&gt;$PATH</title>
<path fill="none" stroke="black" d="M127.45,-143.7C127.45,-135.98 127.45,-126.71 127.45,-118.11"/>
<polygon fill="black" stroke="black" points="130.95,-118.1 127.45,-108.1 123.95,-118.1 130.95,-118.1"/>
</g>
<!-- .venv -->
<g id="node7" class="node">
<title>.venv</title>
<polygon fill="none" stroke="black" points="334.45,-324 281.33,-306 334.45,-288 387.58,-306 334.45,-324"/>
<text text-anchor="middle" x="334.45" y="-302.3" font-family="Courier New" font-size="14.00">.venv</text>
</g>
<!-- $VIRTUAL_ENV&#45;&gt;.venv -->
<g id="edge9" class="edge">
<title>$VIRTUAL_ENV&#45;&gt;.venv</title>
<path fill="none" stroke="black" d="M334.45,-359.7C334.45,-351.98 334.45,-342.71 334.45,-334.11"/>
<polygon fill="black" stroke="black" points="337.95,-334.1 334.45,-324.1 330.95,-334.1 337.95,-334.1"/>
</g>
<!-- Execute -->
<g id="node11" class="node">
<title>Execute</title>
<polygon fill="none" stroke="black" stroke-width="2" points="178.45,-36 76.45,-36 76.45,0 178.45,0 178.45,-36"/>
<text text-anchor="middle" x="127.45" y="-14.3" font-family="Times,serif" font-size="14.00">Execute Python</text>
</g>
<!-- $VIRTUAL_ENV&#45;&gt;Execute -->
<g id="edge8" class="edge">
<title>$VIRTUAL_ENV&#45;&gt;Execute</title>
<path fill="none" stroke="black" d="M375.81,-366.82C433.05,-349.96 529.45,-310.38 529.45,-235 529.45,-235 529.45,-235 529.45,-161 529.45,-93.88 469.04,-98.67 407.45,-72 336.14,-41.12 246.93,-28.18 188.63,-22.79"/>
<polygon fill="black" stroke="black" points="188.75,-19.29 178.48,-21.9 188.13,-26.26 188.75,-19.29"/>
</g>
<!-- shebang -->
<g id="node8" class="node">
<title>shebang</title>
<polygon fill="none" stroke="black" points="334.45,-252 273.63,-234 334.45,-216 395.28,-234 334.45,-252"/>
<text text-anchor="middle" x="334.45" y="-230.3" font-family="Courier New" font-size="14.00">#! ...</text>
</g>
<!-- .venv&#45;&gt;shebang -->
<g id="edge11" class="edge">
<title>.venv&#45;&gt;shebang</title>
<path fill="none" stroke="black" d="M334.45,-287.7C334.45,-279.98 334.45,-270.71 334.45,-262.11"/>
<polygon fill="black" stroke="black" points="337.95,-262.1 334.45,-252.1 330.95,-262.1 337.95,-262.1"/>
</g>
<!-- .venv&#45;&gt;Execute -->
<g id="edge10" class="edge">
<title>.venv&#45;&gt;Execute</title>
<path fill="none" stroke="black" d="M353.15,-294.21C395.27,-268.52 490.94,-201.55 451.45,-144 392.37,-57.88 264.9,-31.07 188.64,-22.74"/>
<polygon fill="black" stroke="black" points="188.99,-19.26 178.69,-21.73 188.29,-26.23 188.99,-19.26"/>
</g>
<!-- shebang&#45;&gt;$PY_PYTHON3 -->
<g id="edge13" class="edge">
<title>shebang&#45;&gt;$PY_PYTHON3</title>
<path fill="none" stroke="black" d="M307.39,-223.85C272.39,-212.01 211.04,-191.26 169.83,-177.33"/>
<polygon fill="black" stroke="black" points="170.92,-174.01 160.33,-174.12 168.68,-180.64 170.92,-174.01"/>
</g>
<!-- $PY_PYTHON -->
<g id="node9" class="node">
<title>$PY_PYTHON</title>
<polygon fill="none" stroke="black" points="334.45,-180 243.46,-162 334.45,-144 425.45,-162 334.45,-180"/>
<text text-anchor="middle" x="334.45" y="-158.3" font-family="Courier New" font-size="14.00">$PY_PYTHON</text>
</g>
<!-- shebang&#45;&gt;$PY_PYTHON -->
<g id="edge12" class="edge">
<title>shebang&#45;&gt;$PY_PYTHON</title>
<path fill="none" stroke="black" d="M334.45,-215.7C334.45,-207.98 334.45,-198.71 334.45,-190.11"/>
<polygon fill="black" stroke="black" points="337.95,-190.1 334.45,-180.1 330.95,-190.1 337.95,-190.1"/>
</g>
<!-- shebang&#45;&gt;$PATH -->
<g id="edge14" class="edge">
<title>shebang&#45;&gt;$PATH</title>
<path fill="none" stroke="black" d="M366.75,-225.36C390.05,-217.98 419.87,-204.24 434.45,-180 442.7,-166.29 444.76,-156.24 434.45,-144 400.71,-103.93 242.24,-94.15 167.13,-91.77"/>
<polygon fill="black" stroke="black" points="166.77,-88.26 156.68,-91.47 166.57,-95.25 166.77,-88.26"/>
</g>
<!-- $PY_PYTHON&#45;&gt;$PATH -->
<g id="edge15" class="edge">
<title>$PY_PYTHON&#45;&gt;$PATH</title>
<path fill="none" stroke="black" d="M302.56,-150.22C265.87,-137.81 205.61,-117.43 166.24,-104.11"/>
<polygon fill="black" stroke="black" points="167.3,-100.78 156.7,-100.89 165.05,-107.41 167.3,-100.78"/>
</g>
<!-- $PATH&#45;&gt;Execute -->
<g id="edge16" class="edge">
<title>$PATH&#45;&gt;Execute</title>
<path fill="none" stroke="black" d="M127.45,-71.7C127.45,-63.98 127.45,-54.71 127.45,-46.11"/>
<polygon fill="black" stroke="black" points="130.95,-46.1 127.45,-36.1 123.95,-46.1 130.95,-46.1"/>
</g>
</g>
</svg>
