<?xml version="1.0" encoding="UTF-8" standalone="no"?>
<!DOCTYPE svg PUBLIC "-//W3C//DTD SVG 1.1//EN"
 "http://www.w3.org/Graphics/SVG/1.1/DTD/svg11.dtd">
<!-- Generated by graphviz version 2.47.0 (20210316.0004)
 -->
<!-- Title: py Pages: 1 -->
<svg width="440pt" height="548pt"
 viewBox="0.00 0.00 440.00 548.00" xmlns="http://www.w3.org/2000/svg" xmlns:xlink="http://www.w3.org/1999/xlink">
<g id="graph0" class="graph" transform="scale(1 1) rotate(0) translate(4 544)">
<title>py</title>
<polygon fill="white" stroke="transparent" points="-4,4 -4,-544 436,-544 436,4 -4,4"/>
<!-- &#45;3.6 -->
<g id="node1" class="node">
<title>&#45;3.6</title>
<polygon fill="none" stroke="black" points="54,-468 0,-468 0,-432 54,-432 54,-468"/>
<text text-anchor="middle" x="27" y="-446.3" font-family="Courier New" font-size="14.00">&#45;3.6</text>
</g>
<!-- $PATH -->
<g id="node10" class="node">
<title>$PATH</title>
<polygon fill="none" stroke="black" points="141,-108 83,-108 83,-72 141,-72 141,-108"/>
<text text-anchor="middle" x="112" y="-86.3" font-family="Courier New" font-size="14.00">$PATH</text>
</g>
<!-- &#45;3.6&#45;&gt;$PATH -->
<g id="edge4" class="edge">
<title>&#45;3.6&#45;&gt;$PATH</title>
<path fill="none" stroke="black" d="M24.43,-432C20.64,-405.4 14,-352.3 14,-307 14,-307 14,-307 14,-233 14,-192.55 10.33,-177.49 33,-144 43.12,-129.05 59,-117.2 73.88,-108.54"/>
<polygon fill="black" stroke="black" points="75.87,-111.43 82.95,-103.55 72.5,-105.3 75.87,-111.43"/>
</g>
<!-- &#45;3 -->
<g id="node2" class="node">
<title>&#45;3</title>
<polygon fill="none" stroke="black" points="139,-468 85,-468 85,-432 139,-432 139,-468"/>
<text text-anchor="middle" x="112" y="-446.3" font-family="Courier New" font-size="14.00">&#45;3</text>
</g>
<!-- $PY_PYTHON3 -->
<g id="node5" class="node">
<title>$PY_PYTHON3</title>
<ellipse fill="none" stroke="black" cx="112" cy="-162" rx="69.59" ry="18"/>
<text text-anchor="middle" x="112" y="-158.3" font-family="Courier New" font-size="14.00">$PY_PYTHON3</text>
</g>
<!-- &#45;3&#45;&gt;$PY_PYTHON3 -->
<g id="edge5" class="edge">
<title>&#45;3&#45;&gt;$PY_PYTHON3</title>
<path fill="none" stroke="black" d="M112,-431.97C112,-384.29 112,-249.18 112,-190.63"/>
<polygon fill="black" stroke="black" points="115.5,-190.31 112,-180.31 108.5,-190.31 115.5,-190.31"/>
</g>
<!-- &lt;nothing&gt; -->
<g id="node3" class="node">
<title>&lt;nothing&gt;</title>
<polygon fill="none" stroke="black" points="303.5,-468 180.5,-468 180.5,-432 303.5,-432 303.5,-468"/>
<text text-anchor="middle" x="242" y="-446.3" font-family="Times,serif" font-size="14.00">No option specified</text>
</g>
<!-- $VIRTUAL_ENV -->
<g id="node6" class="node">
<title>$VIRTUAL_ENV</title>
<polygon fill="none" stroke="black" points="264,-396 157.26,-378 264,-360 370.74,-378 264,-396"/>
<text text-anchor="middle" x="264" y="-374.3" font-family="Courier New" font-size="14.00">$VIRTUAL_ENV</text>
</g>
<!-- &lt;nothing&gt;&#45;&gt;$VIRTUAL_ENV -->
<g id="edge7" class="edge">
<title>&lt;nothing&gt;&#45;&gt;$VIRTUAL_ENV</title>
<path fill="none" stroke="black" d="M247.44,-431.7C249.99,-423.58 253.08,-413.74 255.9,-404.76"/>
<polygon fill="black" stroke="black" points="259.27,-405.73 258.93,-395.14 252.59,-403.64 259.27,-405.73"/>
</g>
<!-- py ... -->
<g id="node4" class="node">
<title>py ...</title>
<polygon fill="none" stroke="black" stroke-width="2" points="145,-540 79,-540 79,-504 145,-504 145,-540"/>
<text text-anchor="middle" x="112" y="-518.3" font-family="Courier New" font-size="14.00">py ...</text>
</g>
<!-- py ...&#45;&gt;&#45;3.6 -->
<g id="edge1" class="edge">
<title>py ...&#45;&gt;&#45;3.6</title>
<path fill="none" stroke="black" d="M90.99,-503.7C80.28,-494.88 67.11,-484.03 55.5,-474.47"/>
<polygon fill="black" stroke="black" points="57.71,-471.76 47.77,-468.1 53.26,-477.16 57.71,-471.76"/>
</g>
<!-- py ...&#45;&gt;&#45;3 -->
<g id="edge2" class="edge">
<title>py ...&#45;&gt;&#45;3</title>
<path fill="none" stroke="black" d="M112,-503.7C112,-495.98 112,-486.71 112,-478.11"/>
<polygon fill="black" stroke="black" points="115.5,-478.1 112,-468.1 108.5,-478.1 115.5,-478.1"/>
</g>
<!-- py ...&#45;&gt;&lt;nothing&gt; -->
<g id="edge3" class="edge">
<title>py ...&#45;&gt;&lt;nothing&gt;</title>
<path fill="none" stroke="black" d="M143.8,-503.88C161.11,-494.55 182.72,-482.92 201.26,-472.94"/>
<polygon fill="black" stroke="black" points="202.93,-476.01 210.08,-468.19 199.61,-469.85 202.93,-476.01"/>
</g>
<!-- $PY_PYTHON3&#45;&gt;$PATH -->
<g id="edge6" class="edge">
<title>$PY_PYTHON3&#45;&gt;$PATH</title>
<path fill="none" stroke="black" d="M112,-143.7C112,-135.98 112,-126.71 112,-118.11"/>
<polygon fill="black" stroke="black" points="115.5,-118.1 112,-108.1 108.5,-118.1 115.5,-118.1"/>
</g>
<!-- .venv -->
<g id="node7" class="node">
<title>.venv</title>
<polygon fill="none" stroke="black" points="264,-324 210.88,-306 264,-288 317.12,-306 264,-324"/>
<text text-anchor="middle" x="264" y="-302.3" font-family="Courier New" font-size="14.00">.venv</text>
</g>
<!-- $VIRTUAL_ENV&#45;&gt;.venv -->
<g id="edge9" class="edge">
<title>$VIRTUAL_ENV&#45;&gt;.venv</title>
<path fill="none" stroke="black" d="M264,-359.7C264,-351.98 264,-342.71 264,-334.11"/>
<polygon fill="black" stroke="black" points="267.5,-334.1 264,-324.1 260.5,-334.1 267.5,-334.1"/>
</g>
<!-- Execute -->
<g id="node11" class="node">
<title>Execute</title>
<polygon fill="none" stroke="black" stroke-width="2" points="163,-36 61,-36 61,0 163,0 163,-36"/>
<text text-anchor="middle" x="112" y="-14.3" font-family="Times,serif" font-size="14.00">Execute Python</text>
</g>
<!-- $VIRTUAL_ENV&#45;&gt;Execute -->
<g id="edge8" class="edge">
<title>$VIRTUAL_ENV&#45;&gt;Execute</title>
<path fill="none" stroke="black" d="M298,-365.69C347.09,-346.95 432,-304.51 432,-235 432,-235 432,-235 432,-161 432,-48.96 266.08,-24.65 173.19,-19.81"/>
<polygon fill="black" stroke="black" points="173.21,-16.31 163.06,-19.35 172.89,-23.3 173.21,-16.31"/>
</g>
<!-- shebang -->
<g id="node8" class="node">
<title>shebang</title>
<polygon fill="none" stroke="black" points="264,-252 203.17,-234 264,-216 324.83,-234 264,-252"/>
<text text-anchor="middle" x="264" y="-230.3" font-family="Courier New" font-size="14.00">#! ...</text>
</g>
<!-- .venv&#45;&gt;shebang -->
<g id="edge11" class="edge">
<title>.venv&#45;&gt;shebang</title>
<path fill="none" stroke="black" d="M264,-287.7C264,-279.98 264,-270.71 264,-262.11"/>
<polygon fill="black" stroke="black" points="267.5,-262.1 264,-252.1 260.5,-262.1 267.5,-262.1"/>
</g>
<!-- .venv&#45;&gt;Execute -->
<g id="edge10" class="edge">
<title>.venv&#45;&gt;Execute</title>
<path fill="none" stroke="black" d="M284.09,-294.62C299.91,-285.46 321.32,-270.66 334,-252 361.44,-211.62 379.39,-185.69 354,-144 314.88,-79.76 230.96,-47.1 173.01,-31.57"/>
<polygon fill="black" stroke="black" points="173.78,-28.15 163.22,-29.04 172.03,-34.93 173.78,-28.15"/>
</g>
<!-- shebang&#45;&gt;$PY_PYTHON3 -->
<g id="edge13" class="edge">
<title>shebang&#45;&gt;$PY_PYTHON3</title>
<path fill="none" stroke="black" d="M241.24,-222.52C218.18,-211.9 181.96,-195.22 153.73,-182.22"/>
<polygon fill="black" stroke="black" points="155.04,-178.97 144.49,-177.96 152.11,-185.32 155.04,-178.97"/>
</g>
<!-- $PY_PYTHON -->
<g id="node9" class="node">
<title>$PY_PYTHON</title>
<ellipse fill="none" stroke="black" cx="264" cy="-162" rx="64.19" ry="18"/>
<text text-anchor="middle" x="264" y="-158.3" font-family="Courier New" font-size="14.00">$PY_PYTHON</text>
</g>
<!-- shebang&#45;&gt;$PY_PYTHON -->
<g id="edge12" class="edge">
<title>shebang&#45;&gt;$PY_PYTHON</title>
<path fill="none" stroke="black" d="M264,-215.7C264,-207.98 264,-198.71 264,-190.11"/>
<polygon fill="black" stroke="black" points="267.5,-190.1 264,-180.1 260.5,-190.1 267.5,-190.1"/>
</g>
<!-- shebang&#45;&gt;$PATH -->
<g id="edge14" class="edge">
<title>shebang&#45;&gt;$PATH</title>
<path fill="none" stroke="black" d="M287.81,-222.98C304.94,-214.35 326.76,-200.09 337,-180 344.27,-165.75 346.93,-156.54 337,-144 314.26,-115.28 209.55,-100.57 151.33,-94.49"/>
<polygon fill="black" stroke="black" points="151.68,-91.01 141.37,-93.49 150.97,-97.98 151.68,-91.01"/>
</g>
<!-- $PY_PYTHON&#45;&gt;$PATH -->
<g id="edge15" class="edge">
<title>$PY_PYTHON&#45;&gt;$PATH</title>
<path fill="none" stroke="black" d="M232.14,-146.33C208.36,-135.38 175.77,-120.37 150.53,-108.74"/>
<polygon fill="black" stroke="black" points="151.8,-105.47 141.25,-104.47 148.87,-111.83 151.8,-105.47"/>
</g>
<!-- $PATH&#45;&gt;Execute -->
<g id="edge16" class="edge">
<title>$PATH&#45;&gt;Execute</title>
<path fill="none" stroke="black" d="M112,-71.7C112,-63.98 112,-54.71 112,-46.11"/>
<polygon fill="black" stroke="black" points="115.5,-46.1 112,-36.1 108.5,-46.1 115.5,-46.1"/>
</g>
</g>
</svg>
